<mxfile host="app.diagrams.net" modified="2024-07-15T02:09:16.478Z" agent="Mozilla/5.0 (Windows NT 10.0; Win64; x64) AppleWebKit/537.36 (KHTML, like Gecko) Chrome/126.0.0.0 Safari/537.36" etag="2QIzPI7JvJAS7Q3UQSFT" version="24.6.5" type="device">
  <diagram name="Page-1" id="6K5OaPWlS9w104XBv_Tm">
    <mxGraphModel dx="382" dy="255" grid="1" gridSize="10" guides="1" tooltips="1" connect="1" arrows="1" fold="1" page="1" pageScale="1" pageWidth="827" pageHeight="1169" background="none" math="0" shadow="0">
      <root>
        <mxCell id="0" />
        <mxCell id="1" parent="0" />
        <mxCell id="TvXxoFhyfYlLrDpQrNbH-4" value="" style="edgeStyle=orthogonalEdgeStyle;rounded=0;orthogonalLoop=1;jettySize=auto;html=1;" edge="1" parent="1" source="TvXxoFhyfYlLrDpQrNbH-1" target="TvXxoFhyfYlLrDpQrNbH-2">
          <mxGeometry relative="1" as="geometry" />
        </mxCell>
        <mxCell id="TvXxoFhyfYlLrDpQrNbH-1" value="&lt;font style=&quot;font-size: 11px;&quot;&gt;User History Records&lt;/font&gt;" style="rounded=1;whiteSpace=wrap;html=1;" vertex="1" parent="1">
          <mxGeometry x="295.01" y="30" width="110" height="20" as="geometry" />
        </mxCell>
        <mxCell id="TvXxoFhyfYlLrDpQrNbH-5" value="" style="edgeStyle=orthogonalEdgeStyle;rounded=0;orthogonalLoop=1;jettySize=auto;html=1;" edge="1" parent="1" source="TvXxoFhyfYlLrDpQrNbH-2" target="TvXxoFhyfYlLrDpQrNbH-3">
          <mxGeometry relative="1" as="geometry" />
        </mxCell>
        <mxCell id="TvXxoFhyfYlLrDpQrNbH-7" value="No" style="edgeLabel;html=1;align=center;verticalAlign=middle;resizable=0;points=[];" vertex="1" connectable="0" parent="TvXxoFhyfYlLrDpQrNbH-5">
          <mxGeometry x="-0.4933" y="1" relative="1" as="geometry">
            <mxPoint as="offset" />
          </mxGeometry>
        </mxCell>
        <mxCell id="TvXxoFhyfYlLrDpQrNbH-9" value="" style="edgeStyle=orthogonalEdgeStyle;rounded=0;orthogonalLoop=1;jettySize=auto;html=1;" edge="1" parent="1" source="TvXxoFhyfYlLrDpQrNbH-2" target="TvXxoFhyfYlLrDpQrNbH-8">
          <mxGeometry relative="1" as="geometry" />
        </mxCell>
        <mxCell id="TvXxoFhyfYlLrDpQrNbH-10" value="Yes" style="edgeLabel;html=1;align=center;verticalAlign=middle;resizable=0;points=[];" vertex="1" connectable="0" parent="TvXxoFhyfYlLrDpQrNbH-9">
          <mxGeometry x="0.352" y="-1" relative="1" as="geometry">
            <mxPoint x="1" y="-4" as="offset" />
          </mxGeometry>
        </mxCell>
        <mxCell id="TvXxoFhyfYlLrDpQrNbH-2" value="&lt;span style=&quot;font-size: 11px;&quot;&gt;Cek Apakah Token Ada Pada Localstorage&lt;/span&gt;" style="rhombus;whiteSpace=wrap;html=1;" vertex="1" parent="1">
          <mxGeometry x="305" y="70" width="90" height="90" as="geometry" />
        </mxCell>
        <mxCell id="TvXxoFhyfYlLrDpQrNbH-3" value="&lt;font style=&quot;font-size: 11px;&quot;&gt;Arahkan ke Login Page&lt;/font&gt;" style="rounded=1;whiteSpace=wrap;html=1;" vertex="1" parent="1">
          <mxGeometry x="430" y="105" width="120" height="20" as="geometry" />
        </mxCell>
        <mxCell id="TvXxoFhyfYlLrDpQrNbH-12" value="" style="edgeStyle=orthogonalEdgeStyle;rounded=0;orthogonalLoop=1;jettySize=auto;html=1;" edge="1" parent="1" source="TvXxoFhyfYlLrDpQrNbH-8" target="TvXxoFhyfYlLrDpQrNbH-11">
          <mxGeometry relative="1" as="geometry" />
        </mxCell>
        <mxCell id="TvXxoFhyfYlLrDpQrNbH-8" value="&lt;font style=&quot;font-size: 11px;&quot;&gt;Ambil Riwayat Record dari Database&amp;nbsp;&lt;/font&gt;" style="rounded=1;whiteSpace=wrap;html=1;" vertex="1" parent="1">
          <mxGeometry x="282" y="190" width="136" height="30" as="geometry" />
        </mxCell>
        <mxCell id="TvXxoFhyfYlLrDpQrNbH-14" value="" style="edgeStyle=orthogonalEdgeStyle;rounded=0;orthogonalLoop=1;jettySize=auto;html=1;" edge="1" parent="1" source="TvXxoFhyfYlLrDpQrNbH-11" target="TvXxoFhyfYlLrDpQrNbH-13">
          <mxGeometry relative="1" as="geometry" />
        </mxCell>
        <mxCell id="TvXxoFhyfYlLrDpQrNbH-11" value="&lt;font style=&quot;font-size: 11px;&quot;&gt;Get User History Record&lt;/font&gt;" style="rounded=1;whiteSpace=wrap;html=1;" vertex="1" parent="1">
          <mxGeometry x="282" y="240" width="136" height="20" as="geometry" />
        </mxCell>
        <mxCell id="TvXxoFhyfYlLrDpQrNbH-16" value="" style="edgeStyle=orthogonalEdgeStyle;rounded=0;orthogonalLoop=1;jettySize=auto;html=1;" edge="1" parent="1" source="TvXxoFhyfYlLrDpQrNbH-13" target="TvXxoFhyfYlLrDpQrNbH-15">
          <mxGeometry relative="1" as="geometry" />
        </mxCell>
        <mxCell id="TvXxoFhyfYlLrDpQrNbH-13" value="&lt;font style=&quot;font-size: 11px;&quot;&gt;Ekstrak&amp;nbsp; User.id Berdasarkan Request.user&lt;/font&gt;" style="rounded=1;whiteSpace=wrap;html=1;" vertex="1" parent="1">
          <mxGeometry x="282" y="280" width="136" height="30" as="geometry" />
        </mxCell>
        <mxCell id="TvXxoFhyfYlLrDpQrNbH-15" value="&lt;font style=&quot;font-size: 11px;&quot;&gt;Query Database untuk Mengambil Record History&amp;nbsp;&lt;/font&gt;&lt;span style=&quot;font-size: 11px; background-color: initial;&quot;&gt;(&lt;/span&gt;SELECT ... FROM record WHERE user_id = ?&#39;, [id])&lt;span style=&quot;font-size: 11px; background-color: initial;&quot;&gt;)&lt;/span&gt;" style="rounded=1;whiteSpace=wrap;html=1;" vertex="1" parent="1">
          <mxGeometry x="198.01" y="330" width="304" height="30" as="geometry" />
        </mxCell>
        <mxCell id="TvXxoFhyfYlLrDpQrNbH-24" value="" style="edgeStyle=orthogonalEdgeStyle;rounded=0;orthogonalLoop=1;jettySize=auto;html=1;" edge="1" parent="1" source="TvXxoFhyfYlLrDpQrNbH-21" target="TvXxoFhyfYlLrDpQrNbH-23">
          <mxGeometry relative="1" as="geometry" />
        </mxCell>
        <mxCell id="TvXxoFhyfYlLrDpQrNbH-21" value="&lt;font style=&quot;font-size: 11px;&quot;&gt;Atur Status Record yang Telah Diambil&amp;nbsp;setRecord(response.data.record)&lt;/font&gt;" style="rounded=1;whiteSpace=wrap;html=1;" vertex="1" parent="1">
          <mxGeometry x="240.51" y="430" width="219" height="30" as="geometry" />
        </mxCell>
        <mxCell id="TvXxoFhyfYlLrDpQrNbH-26" value="" style="edgeStyle=orthogonalEdgeStyle;rounded=0;orthogonalLoop=1;jettySize=auto;html=1;" edge="1" parent="1" source="TvXxoFhyfYlLrDpQrNbH-23" target="TvXxoFhyfYlLrDpQrNbH-25">
          <mxGeometry relative="1" as="geometry" />
        </mxCell>
        <mxCell id="TvXxoFhyfYlLrDpQrNbH-23" value="&lt;font style=&quot;font-size: 11px;&quot;&gt;Render Data Record History Lalu Tampilkan ke Pengguna&lt;/font&gt;" style="rounded=1;whiteSpace=wrap;html=1;" vertex="1" parent="1">
          <mxGeometry x="259.5" y="500" width="179.5" height="30" as="geometry" />
        </mxCell>
        <mxCell id="TvXxoFhyfYlLrDpQrNbH-25" value="&lt;font style=&quot;font-size: 11px;&quot;&gt;End&lt;/font&gt;" style="rounded=1;whiteSpace=wrap;html=1;" vertex="1" parent="1">
          <mxGeometry x="310.13" y="550" width="79.75" height="15" as="geometry" />
        </mxCell>
        <mxCell id="TvXxoFhyfYlLrDpQrNbH-27" value="" style="edgeStyle=orthogonalEdgeStyle;rounded=0;orthogonalLoop=1;jettySize=auto;html=1;" edge="1" parent="1" source="TvXxoFhyfYlLrDpQrNbH-15" target="TvXxoFhyfYlLrDpQrNbH-19">
          <mxGeometry relative="1" as="geometry">
            <mxPoint x="350" y="360" as="sourcePoint" />
            <mxPoint x="350" y="400" as="targetPoint" />
          </mxGeometry>
        </mxCell>
        <mxCell id="TvXxoFhyfYlLrDpQrNbH-29" style="edgeStyle=orthogonalEdgeStyle;rounded=0;orthogonalLoop=1;jettySize=auto;html=1;entryX=0.5;entryY=0;entryDx=0;entryDy=0;" edge="1" parent="1" source="TvXxoFhyfYlLrDpQrNbH-19" target="TvXxoFhyfYlLrDpQrNbH-21">
          <mxGeometry relative="1" as="geometry" />
        </mxCell>
        <mxCell id="TvXxoFhyfYlLrDpQrNbH-19" value="&lt;font style=&quot;font-size: 11px;&quot;&gt;Return Record History dengan format JSON&amp;nbsp;res.json({ sessions })&lt;/font&gt;" style="rounded=1;whiteSpace=wrap;html=1;" vertex="1" parent="1">
          <mxGeometry x="261.01" y="380" width="178" height="30" as="geometry" />
        </mxCell>
      </root>
    </mxGraphModel>
  </diagram>
</mxfile>
